<?xml version="1.0" encoding="utf-8"?>
<!-- Generator: Adobe Illustrator 23.0.4, SVG Export Plug-In . SVG Version: 6.00 Build 0)  -->
<svg version="1.1" id="Layer_1" xmlns="http://www.w3.org/2000/svg" xmlns:xlink="http://www.w3.org/1999/xlink" x="0px" y="0px"
	 viewBox="0 0 1920 1080" style="enable-background:new 0 0 1920 1080;" xml:space="preserve">
<g>
	<g>
		<path d="M1547.81,1044.43c-1.02-3.65-2.83-4.58-6.3-4.51c-10.33,0.21-20.66,0.06-30.99,0.25c-2.89,0.05-4.21-0.64-4.24-3.81
			c-0.33-30.83-0.09-61.65,0.27-92.47c0.03-2.91,1.04-4.97,3.16-6.91c4.39-4.04,7.67-9.81,15.31-7.67c2.74,0.77,2.47-1.62,1.72-3.17
			c-4.41-9.12-7.27-18.85-11.25-28.14c-1.13-2.64-3.29-4.68-5.51-6.39c-7.29-5.61-9.16-12.4-5.82-21.05
			c2.37-6.13,0.86-7.66-5.84-7.22c-14.74,0.97-13.03,2.82-17.44-12.64c-3.27-11.48-7.89-22.53-13.23-33.25
			c-1.69-3.4-2.83-7.08-4.28-10.61c-1.21-2.94-2.11-5.56,1.86-7.37c2.37-1.08,1.02-3.25,0.36-4.83c-4.05-9.82-8.18-19.6-12.34-29.37
			c-1.38-3.24-2.11-6.39-1.89-10.09c0.33-5.44-3.26-9.95-5.28-14.81c-1.66-4.01-4.57-7.3-7.33-10.65c-0.96-1.17-2.89-2.8-1.34-4.32
			c3.79-3.73,0.83-5.74-1.56-8.09c-5.04-4.96-7.52-11.7-11.91-17.11c-9.65-11.9-19.81-23.01-33.28-31.1
			c-10.52-6.32-21.07-12.68-31.89-18.36c-19.46-10.22-38.9-20.9-60.48-26.11c-16.75-4.05-33.36-8.5-49.26-15.05
			c-13.03-5.36-25.52-12.02-38.28-18.04c-2.93-1.38-3.21-4.34-3.72-6.73c-1.49-6.97-6.01-10.99-12.14-13.47
			c-10.43-4.22-20.32-9.87-31.43-12.36c-2.56-0.57-4.15-2.4-5.07-4.47c-1.66-3.71-4.92-6.52-6.42-9.93
			c-2.54-5.75-6.94-9.32-11.98-13.19c3.14-0.58,4.46,2.6,7.3,1.76c-1-2.99-2.46-5.17-5.49-6.49c-5.39-2.35-11.18-3.23-16.7-5.1
			c-5.68-1.92-7.84-7.52-4.09-12.29c2.33-2.97,5.26-5.55,8.24-7.9c2.2-1.74,3.11,0.69,4.05,2.13c1.01,1.55,1.31,4.51,4.03,3.05
			c2.63-1.41,1.45-3.43,0.5-5.89c-1.71-4.46-4.02-8.97-3.24-14.08c0.07-0.48-0.13-1.22,0.12-1.41c3.67-2.76,3.26-7.5,5.37-11.01
			c1.44-2.41-0.66-5.13,0.27-7.71c0.31-0.88-0.15-2.24,1.17-2.42c1.96-0.26,1.4,1.6,1.55,2.5c0.73,4.36-1.36,8.4-1.69,12.69
			c-0.43,5.6-1.4,11.17-2.13,16.75c-0.13,1-0.23,2,0.8,2.86c1.98-0.61,1.34-3.03,2.48-4.27c1.33,1.41-1.21,4.33,1.94,4.46
			c2.08,0.09,4.24-0.21,5-2.99c0.32-1.17,1.78-1.99,1.84-3.43c0.43-10.55,8.27-15.54,15.49-21.04c3.07,3.25,3.16,7.36,4.32,11.2
			c0.5-10.01,1.42-20.04-0.56-29.87c-4.07-20.3-3.94-40.63-1.31-61.02c1.04-8.03,3.37-16.03,3.26-24.01
			c-0.09-6.07-0.87-12.22-0.77-18.37c0.05-3.17,0.38-6.2,1.6-9.25c2.12-5.29,2.8-10.9,2.39-16.61c-0.67-9.21,0.67-18.53-3.19-27.54
			c-1.96-4.58-2.3-9.99-2.7-15.08c-0.42-5.23-0.92-10.23-4.35-14.54c-1.77-2.23-1.9-5.02-1.11-7.65c1.68-5.59,0.08-10.72-1.37-16.09
			c-3.02-11.23-5.24-22.64-2.13-34.3c0.45-1.68,0.39-3.26-0.12-4.9c-2.33-7.42-3.54-15.21-7.39-22.11
			c-1.04-1.85-1.39-3.96-0.84-5.82c2.11-7.01,0.85-13.8-0.93-20.56c-1.08-4.11-4.22-7.46-3.94-12.17
			c0.41-6.96,0.32-13.85-3.09-20.42c-1.19-2.29-0.76-5.57-0.64-8.37c0.41-9.83-2.1-18.74-7.96-26.65
			c-6.12-8.25-11.06-17.24-17.57-25.34c-4.44-5.53-9.51-9.57-14.52-14.2c-7.89-7.31-15.72-14.73-23.55-22.13
			c-2.67-2.53-5.02-4.65-9.12-3.04c-3.2,1.26-5.88-0.56-8.01-2.81c-4.56-4.83-10.37-6.5-16.68-6.61c-5.01-0.09-9.51-1.59-13.8-3.87
			c-6.01-3.18-11.21-2.94-17.08,1.23c-6.22,4.43-14.04,5.72-21.46,4.03c-5.65-1.28-11.19-1.71-16.79-1.34
			c-5.41,0.36-9.43-1.52-12.46-5.76C962.58,4.28,958.89,1.7,959-3H851c-0.58,1.79-1.57,3.3-2.97,4.54
			c-15.62,13.79-30.03,28.8-44.25,44.01c-2.94,3.15-6.3,5.91-9.44,8.88c-3.41,3.23-6.46,6.44-6.45,11.82
			c0.01,3.67-3.33,6.02-5.88,8.37c-3.87,3.56-6.51,7.49-5.8,13.09c0.33,2.57-0.96,4.79-2.08,7.07c-2.61,5.31-5.91,10.29-6.36,16.55
			c-0.53,7.33-4.19,13.82-6.34,20.72c-2.23,7.14-6.3,13.77-5.37,21.9c0.45,3.96-3.22,6.74-6.03,9.37c-2.5,2.34-4.65,4.71-4.09,8.58
			c0.17,1.21-0.2,2.79-0.9,3.8c-7.1,10.28-10.02,22.48-15.41,33.56c-6.28,12.93-11.63,26.36-16.6,39.86
			c-1.65,4.49-4.14,7.6-7.3,10.83c-3.87,3.94-5.17,9.56-7.91,14.29c-1.93,3.31-3.59,6.73-6.46,9.39c-0.72,0.67-1.46,1.5-1.75,2.39
			c-3.47,10.81-11.04,19.42-15.86,29.51c-0.67,1.4-1.1,2.57-0.83,4.21c0.26,1.56,0.29,3.71-0.57,4.82
			c-7.68,9.83-4.81,19.93-0.18,29.45c3.03,6.23,4.7,12.24,4.23,19.07c-0.2,2.93,0.13,5.84,1.28,8.74
			c1.84,4.62-2.48,15.83-7.05,18.26c-4.56,2.43-6.13,6.34-6.33,11.01c-0.15,3.48,0.24,6.98,0.31,10.48c0.04,1.82,0.19,3.7-0.2,5.44
			c-0.92,4.11-4.43,8.16,3.36,10.34c2.71,0.76,4.03,7.04,3.18,11.33c-1.7,8.59-2.42,17.27-2.09,25.95
			c0.29,7.46-5.37,10.72-9.48,14.98c-2.76,2.86-4.8,5.67-5.65,9.63c-1.11,5.17-5.88,8.27-8.17,12.86c-0.65,1.31-1.82,2.37-2.72,3.56
			c-1.55,2.06-1.53,3.34,1.56,3.21c1.14-0.05,2.8-1.23,3.16,1.03c0.28,1.73-0.73,2.9-2.12,3.62c-1.75,0.91-3.86,1.15-5.21,2.81
			c-1.01,1.24-2.69,2.45-0.98,4.22c1.61,1.66,2.67,1.34,4-0.78c1.46-2.33,4.65-1.19,6.91-2.18c0.18-0.08,0.89,0.49,0.93,0.81
			c0.15,1.24-0.27,2.63-1.41,2.95c-4.01,1.13-6.3,4.63-9.64,6.64c-4.72,2.84-6.32,7.05-4.75,12.28c1.1,3.65,2.51,7.23,3.24,10.94
			c1.08,5.52-0.56,7.98-5.79,9.96c-1.08,0.41-2.46,0.63-3.14,1.42c-5.04,5.83-12.44,6.25-18.95,8.87
			c-9.66,3.88-17.61,9.53-23.49,19.37c-5.68,9.53-13.22,19.58-26.61,20.13c-2.54,0.1-3.17,1.27-3.38,3.27
			c-0.09,0.82-0.15,1.68-0.02,2.49c2.04,12.17-5.7,19.26-13.34,26.69c-4.19,4.08-7.5,9.08-11.14,13.72
			c-1.15,1.47-2.3,3.26-4.18,3.33c-4.26,0.15-6.34,2.76-8.3,6.01c-2.89,4.79-7.57,6.96-12.53,9.4c-4.51,2.22-8.5,5.75-13.34,7.81
			c-1.84,0.78-1.89,3.39-2.85,5.12c-0.81,1.46,0.06,4.2-2.6,4.19c-3.02-0.01-1.46-3.19-2.75-4.83
			c-4.46,6.95-11.23,11.73-15.21,19.01c-2.14,3.92-7.49,4.62-10.8,7.73c-1.4,1.31-3.46-0.78-5.4-0.92
			c-3.01-0.22-5.21-0.58-6.09,2.78c-0.75-0.28-1.15-0.3-1.32-0.51c-1.09-1.33-0.57-4.57-2.75-4.1c-2.37,0.52-4.34,3.29-4.18,5.68
			c0.47,6.86-3.13,9.25-9.12,10.67c-3.67,0.87-4.7,4.87-5.74,8.25c-0.19,0.61-0.03,1.33-0.11,1.99c-1.26,9.93-2.63,10.92-12.37,8.82
			c-2.35-0.51-4.34-0.6-5.09,2.31c-0.33,1.26-1.3,2.05-2.5,2.18c-6.77,0.75-6,5.62-5.99,10.93c3.19-1.97,5.93-3.5,7.44-6.65
			c3.35,9.15,2.18,12.97-5.54,17.96c-2.41,1.56-4.97,2.82-4.89,6.3c0.03,1.35-1.06,1.99-2.21,2.41c-1.37,0.49-2.7,1.53-2.46,2.83
			c1.41,7.88-4.1,10.41-9.65,13.12c-2.09,1.02-2,2.1,0.37,3.13c1.9,0.83,1.34,1.73,0.35,2.46c-1.63,1.2-2.78,3.42-4.24,4.01
			c-3.64,1.46-4.47,3.74-4.99,7.34c-0.48,3.33-3.24-0.2-4.95,0.54c-0.91,3.35,0.32,5.32,3.7,6.21c1.58,0.42,3.87,1.3,2.86,3.23
			c-1.38,2.65-0.37,6.21-3.2,8.14c-0.91,0.62-1.58,0.06-1.6-1.03c-0.03-1.09,1.25-2.05,0.42-3.27c-2.13-0.51-3.63,0.99-4.08,2.25
			c-1.77,4.92-5.57,8.32-8.53,12.34c-0.88,1.19-1.7,2.44-2.65,3.57c-0.74,0.89-2.31,1.61-2.37,2.47c-0.39,5.99-3.69,9.62-8.87,11.98
			c-0.62,0.28-1.01,1.38-0.34,1.62c5.52,2.01,0.94,3.64-0.15,5.36c-0.57,0.9-0.84,1.92-0.48,2.86c1.77,4.55-0.7,7.82-4.05,9.62
			c-7.29,3.92-8.77,11.98-13.6,17.59c-0.59,0.69-1.04,2.06,0.41,2.44c4.68,1.22,2.28,3.62,0.57,5.02
			c-4.97,4.07-10.2,7.79-12.05,14.44c-0.26,0.93-1.19,1.03-2.08,0.71c-2.38-0.85-2.98,0.86-3.36,2.51
			c-0.55,2.39-2.48,3.92-3.49,6.02c-0.21,0.44-0.66,1.2-0.86,1.16c-6.39-1.44-5.39,6.09-9.27,7.66c-1.86-0.7,0.22-2.06-0.63-2.95
			c-1.13-0.13-1.79,0.86-2.2,1.59c-1.31,2.34-3,3.4-4.86,3.86c0.35,4.73-0.07,9.48-1.21,13.62c-2.68,9.75-9.57,18.38-18.15,23.61
			c-0.18,0.11-0.36,0.23-0.54,0.35c-1.46,1.37-2.85,2.8-4.18,4.3c-6.32,9.21-11.37,19.23-17.58,28.52
			c-10.65,15.95-23.53,29.18-39.64,39.68c-3.42,2.23-6.96,4.28-10.6,6.15c359.32-0.08,718.65-0.09,1077.97-0.09
			c-0.03-7.05-4.47-12.33-7.32-18.24c-1.01-2.09-2.22-4.08-3.27-6.14c-1.45-2.85-1.29-5.99,1.19-7.74
			c7.89-5.56,11.36-14.52,17.28-21.57c7.1-8.46,7.12-8.64,11.28,1.15c3.64,8.58,7.82,16.87,12.76,24.75
			c5.44,8.69,7.51,18.78,12.09,27.8h238C1552.51,1060.4,1550.05,1052.43,1547.81,1044.43z M382.2,824.24
			c-1.7,1.61-2.8,4.02-6.65,5.02c1.72-3.08,2.75-5.09,3.94-6.99c0.6-0.97,1.67-1.07,2.61-0.49
			C383.22,822.47,382.98,823.5,382.2,824.24z M455.11,732.04c-1.46-0.73-3.72-0.63-4.14-2.8c-0.29-1.46,0.78-2.86,2.25-2.53
			c1.69,0.37,4.38-0.1,4.48,2.77C457.75,730.87,456.86,731.95,455.11,732.04z M505.13,996.63c-0.78,6.7-0.61,13.13-3.25,19.29
			c-2.65,6.18-6.28,8.57-12.44,6.21c-3.58-1.37-9.02-0.57-10.41-4.22c-1.22-3.21,1.96-7.14,3.26-10.73
			c2.71-7.53,6.12-14.73,9.84-21.81c1.69-3.22,3.49-3.31,5.64-0.87C501.01,988.16,505.5,991.14,505.13,996.63z M644.57,550.56
			c-0.94,0.58-3.22,0.46-3.05-0.2c0.6-2.35-3.12-3.3-1.22-6.08c1.43,1.33,2.63,2.48,3.85,3.58
			C645.06,548.67,646.14,549.58,644.57,550.56z M649.28,538.06c-3.17,1.66-6,4.35-9.87,4.09l-0.51-1.24
			c2.95-1.68,5.9-3.38,8.87-5.02c0.75-0.41,1.72-0.45,2.05,0.5C649.99,536.84,649.67,537.85,649.28,538.06z M681.71,510.93
			c-2.56,3.23-4.86,6.78-9.55,7.14C674.65,514.67,677.48,511.84,681.71,510.93z M668.96,504.27c-0.06-1.1,1.66-1.46,2.77-1.68
			c0.95-0.18,1.45,0.7,1.83,1.4c0.78,1.44-0.38,2.11-1.29,2.77c-1.57,1.13-2.94,2.63-5.61,2.98
			C667.38,507.46,669.08,506.38,668.96,504.27z M686.37,543.87c-4.44-0.07-9.04,0.43-13.15-1.95c-1.04-0.6-1.86-0.44-3.3,0.87
			c4.62,1.49,7.77,4.51,11.71,7.12c-5.89,2.19-11.4,4.21-17.59,3.06c-4.42-0.82-6.54-4.23-5.72-9.73c0.31-2.08,6.3-5.54,8.37-4.23
			c3.61,2.28,7.02,0.09,10.3-0.14c2.57-0.18,5.77-0.84,8.3-2.08c3.5-1.72,3.94,1.32,4.44,2.8
			C690.54,542.01,688.88,543.91,686.37,543.87z M951.01,367.57c-0.08,1.8-0.51,3.59-0.64,5.4c-0.1,1.4,0.7,3.4-1.67,3.28
			c-1.74-0.09-2.33-1.61-2.05-3.34c0.13-0.81,0.21-1.64,0.3-2.41c-0.17-1.04-0.39-2.02-0.49-3c-0.19-1.98,0.66-3.34,2.72-3.3
			C951.45,364.25,951.07,366.17,951.01,367.57z M950.1,361.56c-0.4-0.12-0.77-0.14-1-0.32c-1.49-1.15-2.71-10.08-1.62-11.52
			c0.91-1.21,2.18-1.99,3.31-0.75c1.22,1.33-0.6,1.31-1.22,1.9c-2.41,2.31,0.49,3.75,1.03,5.58
			C951.14,358.24,952.65,360.12,950.1,361.56z M1201.51,797.51c2.29,4.68,3.36,9.65,3.86,15.05
			C1202.63,810.36,1200.68,803.27,1201.51,797.51z M1221.6,712.95c5.18,2.73,8.07,8.02,12.62,11.46
			C1227.97,722.9,1225.6,717,1221.6,712.95z M1234.43,724.58c2.95,3.22,5.9,6.43,8.86,9.65
			C1239.66,731.61,1235.15,729.75,1234.43,724.58z M1254.63,621.27c-2,0.05-3.36,0.61-2.27,3.02c1.61,3.57-0.79,6.05-2.57,8.56
			c-1.16,1.65-2.96,2.37-4.63,0.51c-2-2.22-4.24-2.2-6.81-1.25c-1.28,0.47-2.79,1.84-3.98-0.04c-1.04-1.65-1.33-3.41,0.39-4.95
			c0.96-0.86,2.41-1.75,1.17-3.23c-1.02-1.23-2.47-0.75-3.65-0.04c-2.26,1.36-3.82,0.49-4.94-1.52c-0.78-1.39-0.73-2.73,1.28-2.77
			c1.53-0.03,3.33,0.3,4.14-1.1c4.07-7.07,11.01-3.09,16.54-4.5c2.42-0.62,2.65,0.45,1.7,2.87c-0.31,2.5,1.4,1.66,3.01,1.13
			c1.61-0.53,3.72-1.15,4.12,1.08C1258.54,621.46,1256.29,621.22,1254.63,621.27z M1426.89,759.17c0.49-2.99,4.14,1.93,6.68,0.14
			c0.68-0.48,2.61-0.12,2.36,1.57c-0.2,1.31-1.59,0.79-2.84,0.86C1431.38,760.09,1426.4,762.21,1426.89,759.17z M1286.36,729.23
			c7.01-6.98,47.46-20.02,53.25-17.19C1321.26,716.7,1304.21,721.95,1286.36,729.23z M1315.72,764.08
			c1.94,4.69,6.53,7.95,7.24,13.26C1318.58,774.01,1317.66,768.73,1315.72,764.08z M1319.39,724.01c2.75-1.99,17.41-5.86,19.7-5.35
			c2.04,0.46,3.68,2.25,3.73,3.89c0.1,2.79-2.24,1.28-3.72,1.27C1332.53,723.79,1325.98,720.28,1319.39,724.01z M1340.71,732.18
			c-0.19-0.72,0.01-1.53,0.73-1.56c3.13-0.16,3.17,3.34,5.22,4.6C1343.76,735.67,1341.48,735.19,1340.71,732.18z M1343.48,710.77
			c-0.11-0.54-0.22-1.08-0.32-1.62c7.59-1.49,15.06-3.58,23.04-3.19C1358.63,707.57,1351.06,709.17,1343.48,710.77z M1425.19,962.12
			c-1.21-0.9-3.17-1.44-2.85-3.63c-0.98-0.11-2.1,0.05-2.92-0.37c-11.24-5.72-22.45-11.53-33.66-17.59
			c4.19,0.35,8.32,0.91,12.18-1.43c1.79-1.08,2.55,0.92,3.62,1.81c0.89,0.74,1.72,1.77,3.03,1.06c1.2-0.64,1.54-1.97,1.14-3.04
			c-2.2-5.92-2.21-12.85-7.81-17.24c-3.05-2.39-0.03-4.5,0.45-6.66c0.53-2.36,5.34-5.9-1.89-5.55c-1.41-4.68-7.84-5.02-8.84-10.67
			c7.52,2.66,8.33-3.01,9.87-7.78c2.05-6.39,8.93-11.13,15.33-10.81c2.9,0.15,1.72,2.09,1.49,3.16c-0.79,3.64-2.7,7-0.77,11.01
			c0.79,1.64-0.25,2.02-4.89,0.57c-0.82,3.22,3.19,4.07,3.39,7.05c-2.98,0.46-4.45-2.8-7.14-2.66c-1.61,0.09-3.44-0.74-4.42,1.21
			c-0.76,1.51-0.31,3.05,0.88,4.11c2.5,2.23,3.4,4.78,2.35,8.03c-0.54,1.68,1.18,2.61,1.57,3.83c1.55,4.82,5.12,6.41,9.38,8.35
			c2.68,1.23,1.89,5.64,0.15,8.57c-0.67,1.13-1.71,2.04-2.49,3.12c-4.62,6.35-4.19,7.83,2.67,11.62c2.72,1.5,4.78,4,7.57,5.56
			c1.75,0.98,0.82,2.97,0.19,4.53c1.41-0.59,2.97-1.11,4.36-0.48c1.43,0.66,3.41,0.7,4.04,2.54c0.14,0.4-0.38,1.32-0.83,1.58
			C1428.7,962.89,1426.81,963.32,1425.19,962.12z M1433.4,970.49c1,1.13,1.38,2.81,2.2,4.57c-0.87-0.25-1.28-0.24-1.43-0.43
			c-1.87-2.41-5.33-4.58-4.41-7.76c0.98-3.39,5.03-2.32,7.84-2.77c4.18-0.67,8.4-1.09,12.61-1.62c0.05,0.4,0.1,0.79,0.15,1.19
			c-4.84,0.75-9.66,1.67-14.53,2.19C1432.33,966.23,1429.87,966.52,1433.4,970.49z M1439.81,981.82
			c8.47,10.21,15.3,21.55,22.28,32.78C1453.19,1004.68,1446.3,993.39,1439.81,981.82z M1504.88,895.64
			c2.32,3.64,3.84,7.54,3.75,11.97C1507.75,903.49,1504.56,900.14,1504.88,895.64z M1522.06,1053.61c2.03,2.83,3.57,4.93,3.75,9.36
			C1522.97,1059.81,1521.24,1057.72,1522.06,1053.61z"/>
	</g>
	<g>
		<g>
			<path d="M1302.79,721.87c12.25-0.02,24.51-0.03,36.76-0.05c0-1,0-2,0-3c-17.4,1.95-34.88,2.94-52.39,3
				c0.13,0.98,0.27,1.96,0.4,2.95c13.27-3.77,26.38-8.05,39.32-12.83c1.78-0.66,1.09-3.43-0.8-2.89
				c-7.88,2.23-15.84,3.23-24.02,3.03c0.13,0.98,0.27,1.96,0.4,2.95c12.21-3,24.59-4.84,37.14-5.5c-0.35-0.85-0.71-1.71-1.06-2.56
				c-6.79,7.57-15.35,12.69-25.23,15.1c-1.53,0.37-1.32,2.43,0,2.89c5.74,2.02,11.47,0.72,15.89-3.42c1.41-1.32-0.71-3.44-2.12-2.12
				c-3.68,3.44-8.26,4.3-12.97,2.64c0,0.96,0,1.93,0,2.89c10.35-2.52,19.44-7.94,26.55-15.87c0.81-0.91,0.31-2.63-1.06-2.56
				c-12.82,0.68-25.48,2.54-37.94,5.61c-1.67,0.41-1.27,2.91,0.4,2.95c8.46,0.21,16.68-0.83,24.82-3.13
				c-0.27-0.96-0.53-1.93-0.8-2.89c-12.94,4.78-26.05,9.06-39.32,12.83c-1.62,0.46-1.31,2.95,0.4,2.95
				c17.51-0.05,34.99-1.05,52.39-3c1.87-0.21,1.98-3,0-3c-12.25,0.02-24.51,0.03-36.76,0.05
				C1300.86,718.88,1300.86,721.88,1302.79,721.87L1302.79,721.87z"/>
		</g>
	</g>
	<g>
		<g>
			<path d="M1181.56,788.22c0.77,16.01,4.9,31.22,12.33,45.41c3.93,7.51,16.99,8.16,20.72,0c9.12-19.94,11.32-41.26,12.64-62.92
				c1.17-19.26,1.61-39.68,9.82-57.54c-7.31-0.96-14.62-1.91-21.93-2.87c9.51,25.39,30.39,43.35,55.67,52.29
				c12.29,4.35,25.13,5.3,38.02,6.4c10.4,0.88,21.65,2.17,28.84,9.38c1.77-6.69,3.53-13.37,5.3-20.06
				c-11.2,3.09-22.74,3.68-34.14,1.32c1.77,6.69,3.53,13.37,5.3,20.06c14.25-16.76,29.69-32.43,46.25-46.91
				c5.48-4.79,4.33-15.67-2.43-18.85c-28.86-13.57-63.01-12.47-90.42,4.27c-10.46,6.39-5.68,21.7,6.06,22.36
				c17.33,0.97,33.32-5.83,49.39-11.21c6.62-2.22,14.02-4.46,20.22-4.76c7.23-0.35,12.07,0.92,17.26,3.92
				c5.3,3.07,8.62,6.17,13.62,11.26c4.41,4.48,8.56,9.2,12.94,13.72c9.64,9.95,21.08,19.26,35.14,21.58
				c6.39,1.05,12.92-1.67,14.76-8.38c1.58-5.74-1.95-13.7-8.38-14.76c-11.99-1.98-18.68-9.08-28-19.04
				c-9.27-9.91-18.67-20.81-31.14-26.77c-16.15-7.71-33.22-6.16-49.87-0.87c-15.17,4.82-30.19,12.2-45.95,11.31
				c2.02,7.45,4.04,14.91,6.06,22.36c19.72-12.05,45.11-14.18,66.19-4.27c-0.81-6.28-1.62-12.56-2.43-18.85
				c-16.56,14.48-32.01,30.14-46.25,46.91c-5.4,6.36-4.23,18.09,5.3,20.06c15.65,3.23,31.47,2.93,46.9-1.32
				c8.71-2.4,11.68-13.67,5.3-20.06c-18.87-18.9-46.28-13.75-69.03-19.41c-20.35-5.06-40.01-18.52-47.33-38.07
				c-1.7-4.53-4.94-8-9.98-8.6c-4.37-0.52-9.96,1.38-11.96,5.73c-9.15,19.92-11.37,41.24-12.69,62.9
				c-1.17,19.26-1.59,39.68-9.77,57.56c6.91,0,13.82,0,20.72,0c-5.41-10.34-8.49-21.65-9.05-33.3c-0.31-6.48-5.29-12-12-12
				C1187.3,776.22,1181.25,781.71,1181.56,788.22L1181.56,788.22z"/>
		</g>
	</g>
	<g>
		<g>
			<path d="M1382.61,890.18c-2.9,15.13-1.29,30.04,2.43,44.89c3.15,12.58,6.3,27.2,14.14,37.78c7.55,10.19,18.82,14.58,28.49,22.16
				c8.6,6.75,14.88,16.11,18.11,26.44c1.58,5.06,6.17,8.81,11.57,8.81c5.73,0,9.51-3.86,11.57-8.81
				c4.93-11.83,3.83-25.32,0.02-37.31c-3.48-10.94-8.54-23.05-15.37-32.38c-7.86-10.74-21.46-15.93-33.57-8.41
				c-13.04,8.09-13.52,25.05-4.22,36.03c6.4,7.55,21.64,1.73,20.49-8.49c-4.78-42.37,7.2-84.88-2.12-127
				c-2.1-9.51-17.69-12.34-21.93-2.87c-6.51,14.51-8.85,29.57-10.7,45.26c-1.57,13.3-2.86,27.29-8.73,39.51
				c7.45,2.02,14.91,4.04,22.36,6.06c-0.56-11.85,1.21-23.67,6.15-34.53c-7.31-3.08-14.62-6.16-21.93-9.25
				c-3.07,22.3-4.19,44.61-2.71,67.09c0.73,11.06,12.3,14.93,20.49,8.49c8.82-6.94,8.61-21.98,0.25-29.15
				c-4.92-4.21-12.14-4.83-16.97,0c-4.32,4.32-4.94,12.74,0,16.97c2.1,1.8-0.55-1.25-0.66-2.34c-0.15-1.45,2.88-4.41,0.41-2.46
				c6.83,2.83,13.66,5.66,20.49,8.49c-1.32-20.2-0.91-40.63,1.86-60.71c0.82-5.93-0.92-11.73-6.95-14.16
				c-5.06-2.04-12.48-0.61-14.99,4.91c-6.7,14.75-10.19,30.39-9.42,46.64c0.25,5.3,3.55,10.13,8.81,11.57
				c4.83,1.33,11.28-0.78,13.55-5.51c6.88-14.31,9.36-29.37,11.23-45.01c1.6-13.3,2.65-27.4,8.2-39.77
				c-7.31-0.96-14.62-1.91-21.93-2.87c8.78,39.68-3.26,80.55,1.26,120.62c6.83-2.83,13.66-5.66,20.49-8.49
				c0.55,0.65,0.19,1.6,0.42,0.46c0.32-1.6-0.14,0.24-0.23,0.57c-0.15,0.54-1.03,0.14-1.18,0.29c1.26-1.23,1.73,0.62,0.43-0.11
				c0.92,0.52,2.19,2.4,3.33,4.38c1.72,3,3.27,6.12,4.79,9.23c5.8,11.89,10.83,24.95,5.46,37.84c7.71,0,15.43,0,23.14,0
				c-3.65-11.66-9.7-22.29-18.07-31.21c-7.98-8.5-18.14-13.11-27.24-20.02c-8.85-6.72-10.86-18.52-13.69-28.64
				c-3.49-12.46-6.65-25.69-4.17-38.64c1.22-6.36-1.78-12.95-8.38-14.76C1391.5,880.18,1383.83,883.78,1382.61,890.18
				L1382.61,890.18z"/>
		</g>
	</g>
	<g>
		<g>
			<path d="M1216.31,629.78c7.9,0.89,15.22,4.19,21.7,8.66c9.01,6.21,18.11,8.22,27.24,1.06c5.93-4.64,3.92-15.67-2.43-18.85
				c-2.92-1.46-5.83-2.92-8.75-4.38c-5.79-2.9-13-1.54-16.42,4.3c-3.11,5.32-1.51,13.51,4.31,16.42c2.92,1.46,5.83,2.92,8.75,4.38
				c-0.81-6.28-1.62-12.56-2.43-18.85c-0.33,0.26-0.67,0.52-1,0.78c1.77-1.03,3.53-2.06,5.3-3.09c1.01-0.41,2.23,1.08,1.22-0.09
				c-0.82-0.95-2.61-1.69-3.67-2.43c-3.07-2.11-6.26-3.95-9.65-5.49c-7.85-3.56-15.61-5.49-24.17-6.45c-6.45-0.72-12,6.03-12,12
				C1204.31,624.87,1209.85,629.05,1216.31,629.78L1216.31,629.78z"/>
		</g>
	</g>
	<g>
		<g>
			<path d="M924.59,360.34c2.71,12.6,9.29,24.15,18.58,33.06c6.8,6.53,21.73,2.42,20.49-8.49c-1.6-14.07-3.21-28.14-4.81-42.21
				c-0.73-6.44-4.99-12-12-12c-5.92,0-12.74,5.52-12,12c1.6,14.07,3.21,28.14,4.81,42.21c6.83-2.83,13.66-5.66,20.49-8.49
				c-6.53-6.26-10.51-13.65-12.4-22.47c-1.36-6.34-8.77-10.03-14.76-8.38C926.42,347.38,923.22,353.98,924.59,360.34L924.59,360.34z
				"/>
		</g>
	</g>
</g>
<g>
	<g>
		<path d="M1610.6,1076.24c15.44,0,15.47-24,0-24C1595.16,1052.24,1595.13,1076.24,1610.6,1076.24L1610.6,1076.24z"/>
	</g>
</g>
</svg>
