<?xml version="1.0" encoding="utf-8"?>
<!-- Generator: Adobe Illustrator 23.0.4, SVG Export Plug-In . SVG Version: 6.00 Build 0)  -->
<svg version="1.1" id="Layer_1" xmlns="http://www.w3.org/2000/svg" xmlns:xlink="http://www.w3.org/1999/xlink" x="0px" y="0px"
	 viewBox="0 0 1920 1080" style="enable-background:new 0 0 1920 1080;" xml:space="preserve">
<style type="text/css">
	.st0{fill:none;stroke:#000000;}
	.st1{fill:none;stroke:#F2EB03;stroke-width:6;}
</style>
<path d="M554.23,159.6H230.03H115l48.97,39.4h233.85l18.22-14.66h151.47l30.75-24.74H1252l-41.76-33.6h-285.1l-21.64,17.41H574.36
	L554.23,159.6z"/>
<path class="st0" d="M245.97,172.43l-15.94-12.83 M230.03,159.6h324.21l20.12-16.19H903.5L925.14,126h285.1l41.76,33.6H598.27
	l-30.75,24.74H416.05L397.83,199H163.97L115,159.6H230.03z"/>
<path d="M554.23,159.6H230.03H115l48.97,39.4h233.85l18.22-14.66h151.47l30.75-24.74H1252l-41.76-33.6h-285.1l-21.64,17.41H574.36
	L554.23,159.6z"/>
<path class="st0" d="M245.97,172.43l-15.94-12.83 M230.03,159.6h324.21l20.12-16.19H903.5L925.14,126h285.1l41.76,33.6H598.27
	l-30.75,24.74H416.05L397.83,199H163.97L115,159.6H230.03z"/>
<line class="st1" x1="256.12" y1="145.88" x2="335.12" y2="224.88"/>
<line class="st1" x1="526.12" y1="130.88" x2="643.12" y2="247.88"/>
<line class="st1" x1="718.12" y1="103.88" x2="835.12" y2="220.88"/>
<line class="st1" x1="1043.12" y1="103.88" x2="1160.12" y2="220.88"/>
<line class="st1" x1="834.12" y1="84.88" x2="951.12" y2="201.88"/>
</svg>
